<svg width="20" height="20" viewBox="0 0 20 20" fill="none" xmlns="http://www.w3.org/2000/svg">
<path d="M9.99935 18.3327C6.08733 18.3327 2.91602 15.1614 2.91602 11.2493C2.91602 7.33733 6.08733 4.16602 9.99935 4.16602C13.9114 4.16602 17.0827 7.33733 17.0827 11.2493C17.0827 11.6759 17.045 12.0936 16.9727 12.4993" stroke="#28303F" stroke-width="1.5" stroke-linecap="round"/>
<path d="M12.5 2.01107C11.7053 1.78629 10.8667 1.66602 10 1.66602C9.13331 1.66602 8.29472 1.78629 7.5 2.01107" stroke="#28303F" stroke-width="1.5" stroke-linecap="round"/>
<path d="M11.666 16.6667L13.0022 17.7356C13.42 18.0699 14.027 18.016 14.3794 17.6132L16.666 15" stroke="#28303F" stroke-width="1.5" stroke-linecap="round" stroke-linejoin="round"/>
<path d="M11.25 11.666C11.25 12.3564 10.6904 12.916 10 12.916C9.30964 12.916 8.75 12.3564 8.75 11.666C8.75 10.9757 9.30964 10.416 10 10.416C10.6904 10.416 11.25 10.9757 11.25 11.666Z" stroke="#28303F" stroke-width="1.5"/>
<path d="M10 10V7.5" stroke="#28303F" stroke-width="1.5" stroke-linecap="round" stroke-linejoin="round"/>
</svg>
